<svg width="40" height="40" viewBox="0 0 40 40" fill="none" xmlns="http://www.w3.org/2000/svg">
<path fill-rule="evenodd" clip-rule="evenodd" d="M8 0C3.58172 0 0 3.58172 0 8V9H8C9.10457 9 10 9.89543 10 11C10 12.1046 9.10457 13 8 13H0V18H8C9.10457 18 10 18.8954 10 20C10 21.1046 9.10457 22 8 22H0V27H8C9.10457 27 10 27.8954 10 29C10 30.1046 9.10457 31 8 31H0V32C0 36.4183 3.58172 40 8 40H32C36.4183 40 40 36.4183 40 32V8C40 3.58172 36.4183 0 32 0H8Z" fill="white"/>
<circle cx="16" cy="32" r="3" fill="black"/>
<path d="M20 26L32 7" stroke="#FFB800" stroke-width="5" stroke-linecap="round"/>
</svg>
